<svg width="64" height="64" viewBox="0 0 64 64" fill="none" xmlns="http://www.w3.org/2000/svg">
<circle cx="32" cy="32" r="32" fill="#FC9CFE"/>
<path fill-rule="evenodd" clip-rule="evenodd" d="M7.51501 52.6035C8.48322 46.526 13.9091 41.3992 21.4337 38.8863C24.185 41.6686 27.8595 43.4129 32.0535 43.4129C36.2204 43.4129 39.8745 41.6911 42.6198 38.9402C50.1051 41.4869 55.4803 46.6292 56.3952 52.7101C50.5255 59.6172 41.7747 63.9996 32.0002 63.9996C22.1756 63.9996 13.385 59.5721 7.51501 52.6035ZM44.4802 25.8129C44.4802 30.9026 42.1325 35.3663 38.6059 37.8695C36.7036 39.2198 34.4583 39.9996 32.0535 39.9996C29.6944 39.9996 27.4887 39.2491 25.6098 37.9458C22.0229 35.4576 19.6269 30.9547 19.6269 25.8129C19.6269 17.9779 25.1905 11.6263 32.0535 11.6263C38.9166 11.6263 44.4802 17.9779 44.4802 25.8129Z" fill="#FBFEFF"/>
</svg>
