<svg width="64" height="64" viewBox="0 0 64 64" fill="none" xmlns="http://www.w3.org/2000/svg">
<circle cx="32" cy="32" r="32" fill="#3843D0"/>
<path fill-rule="evenodd" clip-rule="evenodd" d="M7.51501 52.6036C8.48322 46.5261 13.9091 41.3993 21.4337 38.8864C24.185 41.6687 27.8595 43.413 32.0535 43.413C36.2204 43.413 39.8745 41.6912 42.6198 38.9402C50.1051 41.487 55.4803 46.6292 56.3952 52.7102C50.5255 59.6173 41.7747 63.9997 32.0002 63.9997C22.1756 63.9997 13.385 59.5722 7.51501 52.6036ZM44.4802 25.813C44.4802 30.9027 42.1325 35.3664 38.6059 37.8696C36.7036 39.2198 34.4583 39.9997 32.0535 39.9997C29.6944 39.9997 27.4887 39.2491 25.6098 37.9458C22.0229 35.4577 19.6269 30.9548 19.6269 25.813C19.6269 17.9779 25.1905 11.6263 32.0535 11.6263C38.9166 11.6263 44.4802 17.9779 44.4802 25.813Z" fill="#FBFEFF"/>
</svg>
